<?xml version="1.0" standalone="no"?><!DOCTYPE svg PUBLIC "-//W3C//DTD SVG 1.1//EN" "http://www.w3.org/Graphics/SVG/1.1/DTD/svg11.dtd"><svg width="100%" height="100%" viewBox="0 0 1007 294" version="1.1" xmlns="http://www.w3.org/2000/svg" xmlns:xlink="http://www.w3.org/1999/xlink" xml:space="preserve" style="fill-rule:evenodd;clip-rule:evenodd;stroke-linecap:round;stroke-linejoin:round;stroke-miterlimit:1.41421;"><g><path d="M985.415,33.539l-29.908,20.064l-452.334,238.68l-452.334,-238.68l-34.273,-15.7l-15.7,-37.037l1004.61,0l-20.064,32.673Z" style="fill:#506755;stroke-width:1px;stroke:#000;"/><g><rect x="421.421" y="185.458" width="163.503" height="50.582" style="fill:#fff;"/><rect x="430.921" y="194.651" width="144.503" height="32.196" style="fill:#eaeaea;"/><path d="M468.65,211.357c0,0.357 -0.067,0.691 -0.202,1.004c-0.134,0.312 -0.318,0.586 -0.552,0.82c-0.235,0.234 -0.508,0.419 -0.821,0.553c-0.312,0.134 -0.647,0.201 -1.003,0.201l-0.747,0c-0.357,0 -0.692,-0.067 -1.007,-0.201c-0.315,-0.134 -0.59,-0.319 -0.824,-0.553c-0.235,-0.234 -0.419,-0.508 -0.553,-0.82c-0.135,-0.313 -0.202,-0.647 -0.202,-1.004l0,-5.639c0,-0.357 0.067,-0.691 0.202,-1.004c0.134,-0.312 0.318,-0.586 0.553,-0.82c0.234,-0.235 0.509,-0.419 0.824,-0.553c0.315,-0.134 0.65,-0.202 1.007,-0.202l0.747,0c0.356,0 0.691,0.068 1.003,0.202c0.313,0.134 0.586,0.318 0.821,0.553c0.234,0.234 0.418,0.508 0.552,0.82c0.135,0.313 0.202,0.647 0.202,1.004l0,5.639ZM467.705,205.718c0,-0.235 -0.044,-0.453 -0.132,-0.656c-0.088,-0.203 -0.207,-0.38 -0.359,-0.531c-0.151,-0.151 -0.328,-0.271 -0.531,-0.359c-0.202,-0.088 -0.421,-0.132 -0.655,-0.132l-0.659,0c-0.235,0 -0.453,0.044 -0.656,0.132c-0.202,0.088 -0.381,0.208 -0.535,0.359c-0.153,0.151 -0.274,0.328 -0.362,0.531c-0.088,0.203 -0.132,0.421 -0.132,0.656l0,5.639c0,0.235 0.044,0.453 0.132,0.656c0.088,0.202 0.209,0.381 0.362,0.534c0.154,0.154 0.333,0.275 0.535,0.363c0.203,0.088 0.421,0.132 0.656,0.132l0.659,0c0.234,0 0.453,-0.044 0.655,-0.132c0.203,-0.088 0.38,-0.209 0.531,-0.363c0.152,-0.153 0.271,-0.332 0.359,-0.534c0.088,-0.203 0.132,-0.421 0.132,-0.656l0,-5.639Z" style="fill:#000;fill-rule:nonzero;"/><path d="M476.816,207.175c0,0.357 -0.067,0.691 -0.201,1.003c-0.134,0.313 -0.319,0.586 -0.553,0.821c-0.234,0.234 -0.509,0.419 -0.824,0.553c-0.315,0.134 -0.651,0.201 -1.007,0.201l-2.38,0l0,4.036l-0.945,0l0,-10.503l3.325,0c0.356,0 0.692,0.067 1.007,0.201c0.315,0.135 0.59,0.319 0.824,0.553c0.234,0.235 0.419,0.509 0.553,0.824c0.134,0.315 0.201,0.651 0.201,1.007l0,1.304ZM475.872,205.871c0,-0.234 -0.044,-0.453 -0.132,-0.655c-0.088,-0.203 -0.209,-0.381 -0.363,-0.535c-0.154,-0.154 -0.332,-0.274 -0.534,-0.362c-0.203,-0.088 -0.422,-0.132 -0.656,-0.132l-2.336,0l0,4.665l2.336,0c0.234,0 0.453,-0.044 0.656,-0.132c0.202,-0.087 0.38,-0.207 0.534,-0.358c0.154,-0.152 0.275,-0.329 0.363,-0.531c0.088,-0.203 0.132,-0.422 0.132,-0.656l0,-1.304Z" style="fill:#000;fill-rule:nonzero;"/><path d="M478.618,213.789l0,-10.503l5.911,0l0,0.901l-4.966,0l0,3.904l4.021,0l0,0.9l-4.021,0l0,3.897l4.966,0l0,0.901l-5.911,0Z" style="fill:#000;fill-rule:nonzero;"/><path d="M491.743,213.789l-4.38,-7.647l-0.088,-0.454l0,8.101l-0.944,0l0,-10.503l0.49,0l4.38,7.654l0.095,0.446l0,-8.1l0.945,0l0,10.503l-0.498,0Z" style="fill:#000;fill-rule:nonzero;"/><path d="M503.85,211.357c0,0.357 -0.072,0.691 -0.216,1.004c-0.144,0.312 -0.337,0.586 -0.579,0.82c-0.241,0.234 -0.522,0.419 -0.842,0.553c-0.32,0.134 -0.658,0.201 -1.014,0.201l-0.755,0c-0.356,0 -0.694,-0.067 -1.014,-0.201c-0.32,-0.134 -0.601,-0.319 -0.842,-0.553c-0.242,-0.234 -0.435,-0.508 -0.579,-0.82c-0.144,-0.313 -0.216,-0.647 -0.216,-1.004l0,-0.417l0.945,-0.154l0,0.571c0,0.235 0.047,0.453 0.143,0.656c0.095,0.202 0.223,0.381 0.384,0.534c0.161,0.154 0.348,0.275 0.56,0.363c0.213,0.088 0.436,0.132 0.671,0.132l0.659,0c0.234,0 0.456,-0.044 0.666,-0.132c0.21,-0.088 0.396,-0.209 0.557,-0.363c0.161,-0.153 0.289,-0.332 0.384,-0.534c0.096,-0.203 0.143,-0.421 0.143,-0.656l0,-0.315c0,-0.361 -0.071,-0.661 -0.212,-0.901c-0.142,-0.239 -0.33,-0.443 -0.564,-0.611c-0.234,-0.169 -0.499,-0.311 -0.795,-0.429c-0.295,-0.117 -0.599,-0.234 -0.912,-0.351c-0.312,-0.117 -0.616,-0.247 -0.911,-0.388c-0.296,-0.142 -0.561,-0.319 -0.795,-0.531c-0.235,-0.213 -0.423,-0.473 -0.564,-0.78c-0.142,-0.308 -0.213,-0.686 -0.213,-1.136l0,-0.197c0,-0.357 0.068,-0.691 0.202,-1.004c0.134,-0.312 0.318,-0.586 0.553,-0.82c0.234,-0.235 0.509,-0.419 0.824,-0.553c0.315,-0.134 0.65,-0.202 1.007,-0.202l0.674,0c0.356,0 0.691,0.068 1.003,0.202c0.313,0.134 0.586,0.318 0.82,0.553c0.235,0.234 0.419,0.508 0.553,0.82c0.135,0.313 0.202,0.647 0.202,1.004l0,0.271l-0.945,0.153l0,-0.424c0,-0.235 -0.044,-0.453 -0.132,-0.656c-0.088,-0.203 -0.207,-0.38 -0.359,-0.531c-0.151,-0.151 -0.328,-0.271 -0.531,-0.359c-0.202,-0.088 -0.421,-0.132 -0.655,-0.132l-0.586,0c-0.235,0 -0.453,0.044 -0.656,0.132c-0.202,0.088 -0.381,0.208 -0.534,0.359c-0.154,0.151 -0.275,0.328 -0.363,0.531c-0.088,0.203 -0.132,0.421 -0.132,0.656l0,0.197c0,0.337 0.071,0.62 0.213,0.85c0.141,0.229 0.329,0.426 0.564,0.59c0.234,0.163 0.499,0.305 0.794,0.424c0.296,0.12 0.6,0.242 0.912,0.367c0.313,0.124 0.617,0.261 0.912,0.41c0.295,0.149 0.56,0.332 0.795,0.549c0.234,0.217 0.422,0.482 0.564,0.795c0.141,0.312 0.212,0.693 0.212,1.142l0,0.315Z" style="fill:#000;fill-rule:nonzero;"/><path d="M505.879,213.789l0,-10.503l5.911,0l0,0.901l-4.966,0l0,3.904l4.021,0l0,0.9l-4.021,0l0,3.897l4.966,0l0,0.901l-5.911,0Z" style="fill:#000;fill-rule:nonzero;"/><path d="M519.348,211.357c0,0.357 -0.072,0.691 -0.216,1.004c-0.144,0.312 -0.337,0.586 -0.579,0.82c-0.241,0.234 -0.522,0.419 -0.842,0.553c-0.32,0.134 -0.658,0.201 -1.014,0.201l-0.755,0c-0.356,0 -0.694,-0.067 -1.014,-0.201c-0.32,-0.134 -0.601,-0.319 -0.842,-0.553c-0.242,-0.234 -0.435,-0.508 -0.579,-0.82c-0.144,-0.313 -0.216,-0.647 -0.216,-1.004l0,-0.417l0.945,-0.154l0,0.571c0,0.235 0.047,0.453 0.143,0.656c0.095,0.202 0.223,0.381 0.384,0.534c0.161,0.154 0.348,0.275 0.56,0.363c0.213,0.088 0.436,0.132 0.671,0.132l0.659,0c0.234,0 0.456,-0.044 0.666,-0.132c0.21,-0.088 0.396,-0.209 0.557,-0.363c0.161,-0.153 0.289,-0.332 0.385,-0.534c0.095,-0.203 0.142,-0.421 0.142,-0.656l0,-0.315c0,-0.361 -0.07,-0.661 -0.212,-0.901c-0.142,-0.239 -0.33,-0.443 -0.564,-0.611c-0.234,-0.169 -0.499,-0.311 -0.795,-0.429c-0.295,-0.117 -0.599,-0.234 -0.912,-0.351c-0.312,-0.117 -0.616,-0.247 -0.911,-0.388c-0.296,-0.142 -0.561,-0.319 -0.795,-0.531c-0.234,-0.213 -0.422,-0.473 -0.564,-0.78c-0.142,-0.308 -0.212,-0.686 -0.212,-1.136l0,-0.197c0,-0.357 0.067,-0.691 0.201,-1.004c0.134,-0.312 0.319,-0.586 0.553,-0.82c0.234,-0.235 0.509,-0.419 0.824,-0.553c0.315,-0.134 0.651,-0.202 1.007,-0.202l0.674,0c0.356,0 0.691,0.068 1.003,0.202c0.313,0.134 0.586,0.318 0.821,0.553c0.234,0.234 0.418,0.508 0.552,0.82c0.135,0.313 0.202,0.647 0.202,1.004l0,0.271l-0.945,0.153l0,-0.424c0,-0.235 -0.044,-0.453 -0.132,-0.656c-0.088,-0.203 -0.207,-0.38 -0.359,-0.531c-0.151,-0.151 -0.328,-0.271 -0.531,-0.359c-0.202,-0.088 -0.421,-0.132 -0.655,-0.132l-0.586,0c-0.234,0 -0.453,0.044 -0.656,0.132c-0.202,0.088 -0.38,0.208 -0.534,0.359c-0.154,0.151 -0.275,0.328 -0.363,0.531c-0.088,0.203 -0.132,0.421 -0.132,0.656l0,0.197c0,0.337 0.071,0.62 0.213,0.85c0.141,0.229 0.329,0.426 0.564,0.59c0.234,0.163 0.499,0.305 0.794,0.424c0.296,0.12 0.6,0.242 0.912,0.367c0.313,0.124 0.617,0.261 0.912,0.41c0.296,0.149 0.56,0.332 0.795,0.549c0.234,0.217 0.422,0.482 0.564,0.795c0.141,0.312 0.212,0.693 0.212,1.142l0,0.315Z" style="fill:#000;fill-rule:nonzero;"/><path d="M525.317,211.343l-3.325,0l-0.688,2.446l-0.982,0l3.076,-10.503l0.498,0l3.091,10.503l-0.974,0l-0.696,-2.446ZM522.249,210.442l2.819,0l-1.384,-4.842l-0.029,-0.388l-0.029,0.388l-1.377,4.842Z" style="fill:#000;fill-rule:nonzero;"/><path d="M534.802,213.789l0,-7.2l-0.066,0.447l-2.439,6.753l-0.498,0l-2.461,-6.753l-0.058,-0.447l0,7.2l-0.945,0l0,-10.503l0.491,0l3.186,8.613l0.029,0.388l0.029,-0.388l3.179,-8.613l0.498,0l0,10.503l-0.945,0Z" style="fill:#000;fill-rule:nonzero;"/><path d="M538.142,213.789l0,-10.503l5.911,0l0,0.901l-4.966,0l0,3.904l4.021,0l0,0.9l-4.021,0l0,3.897l4.966,0l0,0.901l-5.911,0Z" style="fill:#000;fill-rule:nonzero;"/></g></g></svg>